# xmcd CD database file
#
# Track frame offsets:
#	150
#	23655
#	42605
#	74337
#	99579
#	114320
#	131682
#	146937
#	166945
#	190360
#	212780
#	228385
#	249050
#
# Disc length: 3478 seconds
#
# Revision: 0
# Processed by: cddbd v1.4PL0 Copyright (c) Steve Scherf et al.
# Submitted via: CDex 1.51
#
DISCID=b90d940d
DTITLE=Barrelhouse - The First 10 Years
DYEAR=1995
DGENRE=Blues
TTITLE0=Beware
TTITLE1=I'm Tore Down
TTITLE2=If You Really Wanna Leave
TTITLE3=It's Only A Fool
TTITLE4=Dirty Dozen
TTITLE5=Let Me Love You
TTITLE6=You Were Wrong
TTITLE7=I'll Be Thinking Of You
TTITLE8=Callin' Out Your Name
TTITLE9=Get Like You Used To Do
TTITLE10=Can't Believe
TTITLE11=Too Many People
TTITLE12=1600 TL Blues
EXTD=YEAR: 1995
EXTT0=
EXTT1=
EXTT2=
EXTT3=
EXTT4=
EXTT5=
EXTT6=
EXTT7=
EXTT8=
EXTT9=
EXTT10=
EXTT11=
EXTT12=
PLAYORDER=
